<svg width="40" height="40" viewBox="0 0 40 40" fill="none" xmlns="http://www.w3.org/2000/svg">
<path d="M18.1666 5.33337H5.33329C4.36083 5.33337 3.4282 5.71968 2.74057 6.40732C2.05293 7.09495 1.66663 8.02758 1.66663 9.00004V34.6667C1.66663 35.6392 2.05293 36.5718 2.74057 37.2594C3.4282 37.9471 4.36083 38.3334 5.33329 38.3334H31C31.9724 38.3334 32.905 37.9471 33.5927 37.2594C34.2803 36.5718 34.6666 35.6392 34.6666 34.6667V21.8334" stroke="black" stroke-width="2" stroke-linecap="round" stroke-linejoin="round"/>
<path d="M34.6666 1.44421C33.6352 1.44421 32.646 1.85396 31.9166 2.5833L14.5 20L12.6666 27.3333L20 25.5L37.4166 8.0833C38.146 7.35396 38.5557 6.36475 38.5557 5.3333C38.5557 4.30185 38.146 3.31265 37.4166 2.5833C36.6873 1.85396 35.6981 1.44421 34.6666 1.44421Z" stroke="black" stroke-width="2" stroke-linecap="round" stroke-linejoin="round"/>
</svg>
