<svg width="50" height="50" viewBox="0 0 50 50" fill="none" xmlns="http://www.w3.org/2000/svg">
    <path d="M25 45.8333C36.506 45.8333 45.8334 36.5059 45.8334 25C45.8334 13.494 36.506 4.16663 25 4.16663C13.4941 4.16663 4.16669 13.494 4.16669 25C4.16669 36.5059 13.4941 45.8333 25 45.8333Z" stroke="black" stroke-width="2" stroke-linecap="round" stroke-linejoin="round"/>
    <path d="M18.9375 18.75C19.4273 17.3576 20.3941 16.1835 21.6666 15.4357C22.9391 14.6878 24.4352 14.4144 25.89 14.6639C27.3447 14.9135 28.6642 15.6698 29.6147 16.799C30.5653 17.9282 31.0855 19.3573 31.0833 20.8333C31.0833 25 24.8333 27.0833 24.8333 27.0833" stroke="black" stroke-width="2" stroke-linecap="round" stroke-linejoin="round"/>
    <path d="M25 35.4166H25.0208" stroke="black" stroke-width="2" stroke-linecap="round" stroke-linejoin="round"/>
</svg>
